HIERARCHY
ROOT pelvis
{
  OFFSET 0 100 0
  CHANNELS 6 Xposition Yposition Zposition Zrotation Xrotation Yrotation
  JOINT pelvis_right_femur
  {
    OFFSET -10.78128 -3.44521 -0.5502486
    CHANNELS 3 Zrotation Xrotation Yrotation
    JOINT right_femur_tibia
    {
      OFFSET -0.8047443 -44.0398 -0.1307829
      CHANNELS 3 Zrotation Xrotation Yrotation
      JOINT right_tibia_foot
      {
        OFFSET 3.006224 -47.83518 -5
        CHANNELS 3 Zrotation Xrotation Yrotation
        End Site
        {
          OFFSET 0 -5 15
        }
      }
    }
  }
  JOINT pelvis_left_femur
  {
    OFFSET 10.78128 -3.44521 -0.5502486
    CHANNELS 3 Zrotation Xrotation Yrotation
    JOINT left_femur_tibia
    {
      OFFSET 0.8047443 -44.0398 -0.1307829
      CHANNELS 3 Zrotation Xrotation Yrotation
      JOINT left_tibia_foot
      {
        OFFSET -4.370144 -48.10324 -4.275266
        CHANNELS 3 Zrotation Xrotation Yrotation
        End Site
        {
          OFFSET 0 -5 15
        }
      }
    }
  }
  JOINT pelvis_spine1
  {
    OFFSET 0 6.468898 -3.129235
    CHANNELS 3 Zrotation Xrotation Yrotation
    JOINT spine1
    {
      OFFSET 0 23.15396 4.99043
      CHANNELS 3 Zrotation Xrotation Yrotation
      JOINT spine2
      {
        OFFSET 0 20.79997 -5.064912
        CHANNELS 3 Zrotation Xrotation Yrotation
        JOINT neck
        {
          OFFSET 0 14.38658 9.616178
          CHANNELS 3 Zrotation Xrotation Yrotation
          End Site
          {
            OFFSET 0 20 0
          }
        }
      }
      JOINT right_manubrium
      {
        OFFSET -5.722621 16.35077 3.967754
        CHANNELS 3 Zrotation Xrotation Yrotation
        JOINT right_clavicle
        {
          OFFSET -13.16364 1.694482 -4.693211
          CHANNELS 3 Zrotation Xrotation Yrotation
          JOINT right_humerus
          {
            OFFSET -28.5034 -0.3100689 -2.792744
            CHANNELS 3 Zrotation Xrotation Yrotation
            JOINT right_radius
            {
              OFFSET -25.15693 0.02248979 -1.271978
              CHANNELS 3 Zrotation Xrotation Yrotation
              End Site
              {
                OFFSET -15 0 0
              }
            }
          }
        }
      }
      JOINT left_manubrium
      {
        OFFSET 5.722621 16.35077 3.967754
        CHANNELS 3 Zrotation Xrotation Yrotation
        JOINT left_clavicle
        {
          OFFSET 13.16364 1.694482 -4.693211
          CHANNELS 3 Zrotation Xrotation Yrotation
          JOINT left_humerus
          {
            OFFSET 29.39168 -1.063119 -2.237045
            CHANNELS 3 Zrotation Xrotation Yrotation
            JOINT left_radius
            {
              OFFSET 24.59957 -0.9528479 0.9047498
              CHANNELS 3 Zrotation Xrotation Yrotation
              End Site
              {
                OFFSET 15 -0 -0
              }
            }
          }
        }
      }
    }
  }
}
MOTION
Frames: 9
Frame Time: 0.0416666666667
0 103.5113 0 0.6842964 0.1227256 0.04552421 4.497352 -20.53721 10.19605 -0 36.22446 -0 -5.318325 -15.98788 -3.260106 -7.337855 9.826053 -22.9951 -0 5.697567 -0 12.07606 -16.17675 28.13893 -3.709652 -3.047639 5.034455 2.622769 9.7267 -7.5306 1.679371 21.64245 6.700781 2.877782 -25.23973 10.06816 6.152456 -20.12492 11.58607 85.81996 36.60954 -18.49458 -0 0 16.28359 -6.11063 8.277465 4.149896 6.134753 -19.41314 -1.144067 -93.00935 24.72253 21.34103 0 0 -16.33811 11.89517 15.45234 1.058419
0.3311676 104.0547 1.782942 0.487758 0.08769998 0.1369906 4.530542 -21.82725 9.394224 -0 35.21548 -0 -5.606174 -14.55114 -3.02565 -7.06663 10.36893 -22.35864 -0 5.765504 -0 10.9512 -17.18401 27.07286 -3.585514 -2.742157 4.711025 2.661102 9.650122 -7.574048 1.635232 21.67981 6.819937 2.978576 -25.32589 10.02519 5.875812 -19.86329 11.54061 86.09974 35.79574 -18.84472 -0 0 15.75426 -6.783761 8.189771 4.361988 6.183033 -19.70446 -1.382162 -92.74316 25.01927 20.84888 0 0 -16.72241 11.32019 15.63792 1.590845
0.6603268 104.4431 3.969352 0.0884701 0.9376977 0.2828427 5.119414 -25.2108 8.452499 -0 30.88831 -0 -5.6971 -11.92234 -2.465504 -6.721735 11.1473 -21.09581 -0 5.448174 -0 10.18241 -18.82445 25.83539 -3.420714 -2.424903 4.486106 2.958525 9.656607 -7.840005 1.595282 21.23313 7.01715 3.175578 -26.00433 10.0822 5.570955 -19.58746 11.52263 86.3958 35.20004 -19.49466 -0 0 15.04503 -7.565356 8.360181 4.681285 6.652176 -20.42084 -1.35054 -92.06652 24.00496 19.8487 0 0 -17.7838 12.00571 15.22775 0.5990747
0.9772174 104.6867 6.550473 -0.3459929 1.784866 0.5037452 5.764443 -28.23993 7.701161 -0 26.89815 -0 -5.830698 -9.67155 -2.002417 -6.359182 12.04583 -20.02504 -0 5.481437 -0 8.97369 -20.3553 24.46266 -3.203086 -2.147874 4.21908 3.249794 9.556304 -8.098987 1.55291 20.79822 7.217673 3.361395 -26.64608 10.15591 5.295189 -19.27434 11.44938 86.6691 34.70294 -20.16627 -0 0 14.45236 -8.094848 8.493134 4.868265 7.05837 -20.98014 -1.238976 -91.64072 23.42766 19.12034 0 0 -18.69335 12.17876 14.87302 0.1596111
1.275372 104.8196 9.583554 -0.8327368 2.680443 0.8097281 6.506672 -31.08724 7.069923 -0 23.00777 -0 -6.033307 -7.572705 -1.575274 -5.982663 13.0418 -18.93459 -0 5.999858 -0 7.531868 -21.61272 22.90163 -2.905025 -1.908585 3.91898 3.531864 9.405615 -8.366765 1.49008 20.34802 7.435874 3.534506 -27.25302 10.23517 5.025417 -18.89546 11.34729 87.00275 34.3462 -20.89059 -0 0 13.76672 -8.475399 8.638093 4.998329 7.4328 -21.50564 -1.068771 -91.17435 22.90797 18.35529 0 0 -19.74928 12.29543 14.40333 -0.2151771
1.550305 104.8963 13.12255 -1.386857 3.538088 1.208432 7.340202 -33.53018 6.577471 -0 19.56262 -0 -6.35296 -5.701748 -1.208324 -5.570838 14.08285 -17.85219 -0 7.301026 -0 5.688154 -22.45793 21.03187 -2.491606 -1.687028 3.561039 3.781658 9.193372 -8.620688 1.40349 19.92025 7.665041 3.688037 -27.77968 10.30153 4.767529 -18.43249 11.21876 87.39944 34.08802 -21.64107 -0 0 12.99805 -8.699116 8.783508 5.067294 7.707906 -21.93748 -0.8809138 -90.724 22.59676 17.63853 0 0 -20.82199 12.17305 13.86905 -0.3063697
1.8029 104.9955 17.218 -1.998286 4.262045 1.693121 8.229434 -35.26218 6.223543 -0 16.85008 -0 -6.822613 -4.17024 -0.9188936 -5.124631 15.0224 -16.78069 -0 9.736716 -0 3.461224 -22.62653 18.83457 -1.93678 -1.479599 3.157393 3.971877 8.94022 -8.832835 1.28929 19.55755 7.886535 3.80594 -28.16706 10.32578 4.531288 -17.88633 11.08462 87.86409 33.91329 -22.36515 -0 0 12.13062 -8.781809 8.936435 5.097399 7.820556 -22.2363 -0.7265383 -90.29424 22.49898 17.00621 0 0 -21.80724 11.80881 13.27726 -0.08443531
2.042752 105.2232 21.89798 -2.629692 4.73812 2.231408 9.094488 -35.88196 5.988836 -0 15.13828 -0 -7.452622 -3.141085 -0.7284229 -4.654871 15.60472 -15.7389 -0 13.70237 -0 0.9798702 -21.81654 16.39029 -1.233391 -1.286457 2.753424 4.076403 8.687005 -8.969177 1.146574 19.30904 8.069332 3.871174 -28.35459 10.2679 4.342009 -17.2839 10.98086 88.37167 33.81364 -22.98135 -0 0 11.18887 -8.75688 9.114642 5.125477 7.700995 -22.35346 -0.6670587 -89.92731 22.5964 16.54786 0 0 -22.52968 11.21507 12.64651 0.4675955
2.289243 105.7069 27.14488 -3.20129 4.844205 2.755643 9.789347 -34.95358 5.805853 -0 14.56673 -0 -8.217579 -2.779577 -0.651521 -4.190338 15.45951 -14.73883 -0 19.54342 -0 -1.479394 -19.77712 13.91139 -0.4154123 -1.110052 2.437769 4.072903 8.503858 -8.993893 0.9779994 19.22737 8.17412 3.872492 -28.28603 10.0807 4.232484 -16.68545 10.95758 88.86856 33.78128 -23.39092 -0 0 10.23011 -8.70857 9.346181 5.211937 7.295598 -22.26031 -0.7676693 -89.68068 22.81748 16.37322 0 0 -22.79642 10.45235 12.0044 1.310105
